<svg width="85" height="85" viewBox="0 0 85 85" fill="none" xmlns="http://www.w3.org/2000/svg">
<path d="M2.27087 12.8959H75.6459V68.5625H2.27087V12.8959Z" stroke="#7D77A2"/>
<path d="M76.1459 7.08337V12.3959H1.77087V7.08337C1.77087 5.67441 2.33058 4.32316 3.32687 3.32687C4.32316 2.33058 5.67441 1.77087 7.08337 1.77087H70.8334C72.2423 1.77087 73.5936 2.33058 74.5899 3.32687C75.5862 4.32316 76.1459 5.67441 76.1459 7.08337Z" fill="#374F68"/>
<path d="M76.1459 7.08337V12.3959H7.08337V7.08337C7.08337 5.67441 7.64308 4.32316 8.63937 3.32687C9.63566 2.33058 10.9869 1.77087 12.3959 1.77087H70.8334C72.2423 1.77087 73.5936 2.33058 74.5899 3.32687C75.5862 4.32316 76.1459 5.67441 76.1459 7.08337Z" fill="#425B72"/>
<path d="M10.625 7.08333C10.625 6.61368 10.4385 6.16326 10.1064 5.83117C9.77428 5.49907 9.32386 5.3125 8.85421 5.3125C8.38455 5.3125 7.93414 5.49907 7.60204 5.83117C7.26994 6.16326 7.08337 6.61368 7.08337 7.08333C7.08337 7.55299 7.26994 8.00341 7.60204 8.3355C7.93414 8.6676 8.38455 8.85417 8.85421 8.85417C9.32386 8.85417 9.77428 8.6676 10.1064 8.3355C10.4385 8.00341 10.625 7.55299 10.625 7.08333Z" fill="#DB5669"/>
<path d="M17.7084 7.08333C17.7084 6.61368 17.5218 6.16326 17.1897 5.83117C16.8577 5.49907 16.4072 5.3125 15.9376 5.3125C15.4679 5.3125 15.0175 5.49907 14.6854 5.83117C14.3533 6.16326 14.1667 6.61368 14.1667 7.08333C14.1667 7.55299 14.3533 8.00341 14.6854 8.3355C15.0175 8.6676 15.4679 8.85417 15.9376 8.85417C16.4072 8.85417 16.8577 8.6676 17.1897 8.3355C17.5218 8.00341 17.7084 7.55299 17.7084 7.08333Z" fill="#6FABE6"/>
<path d="M24.7917 7.08333C24.7917 6.61368 24.6051 6.16326 24.273 5.83117C23.9409 5.49907 23.4905 5.3125 23.0208 5.3125C22.5512 5.3125 22.1008 5.49907 21.7687 5.83117C21.4366 6.16326 21.25 6.61368 21.25 7.08333C21.25 7.55299 21.4366 8.00341 21.7687 8.3355C22.1008 8.6676 22.5512 8.85417 23.0208 8.85417C23.4905 8.85417 23.9409 8.6676 24.273 8.3355C24.6051 8.00341 24.7917 7.55299 24.7917 7.08333Z" fill="#9DCC6B"/>
<path d="M76.1458 47.8125V76.1458L58.4375 69.0625V54.8958L76.1458 47.8125Z" fill="#DAD7E5"/>
<path d="M76.1459 47.8125V71.1875L73.1532 70.001C69.8564 68.6741 67.0312 66.3923 65.0403 63.4484C63.0493 60.5046 61.9834 57.033 61.9792 53.4792L76.1459 47.8125Z" fill="#EDEBF2"/>
<path d="M44.2709 54.896H58.4375V69.0627H44.2709V54.896Z" fill="#DAD7E5"/>
<path d="M58.4375 54.896V65.521C55.6196 65.521 52.9171 64.4016 50.9245 62.409C48.9319 60.4164 47.8125 57.7139 47.8125 54.896H58.4375Z" fill="#EDEBF2"/>
<path d="M81.4583 63.7499H79.6875C79.2178 63.7499 78.7674 63.5634 78.4353 63.2313C78.1032 62.8992 77.9167 62.4487 77.9167 61.9791C77.9167 61.5094 78.1032 61.059 78.4353 60.7269C78.7674 60.3948 79.2178 60.2083 79.6875 60.2083H81.4583C81.928 60.2083 82.3784 60.3948 82.7105 60.7269C83.0426 61.059 83.2292 61.5094 83.2292 61.9791C83.2292 62.4487 83.0426 62.8992 82.7105 63.2313C82.3784 63.5634 81.928 63.7499 81.4583 63.7499ZM79.6875 53.1249C79.3358 53.127 78.9914 53.0242 78.6983 52.8298C78.4052 52.6353 78.1766 52.358 78.0417 52.0332C77.9069 51.7083 77.8718 51.3507 77.941 51.0058C78.0102 50.6609 78.1805 50.3445 78.4302 50.0968L80.201 48.326C80.3662 48.1609 80.5622 48.0299 80.7779 47.9405C80.9936 47.8512 81.2248 47.8052 81.4583 47.8052C81.6918 47.8052 81.9231 47.8512 82.1388 47.9405C82.3545 48.0299 82.5505 48.1609 82.7156 48.326C82.8807 48.4911 83.0117 48.6871 83.1011 48.9028C83.1904 49.1185 83.2364 49.3498 83.2364 49.5833C83.2364 49.8168 83.1904 50.048 83.1011 50.2637C83.0117 50.4794 82.8807 50.6754 82.7156 50.8405C80.8385 52.7176 80.6083 53.1249 79.6875 53.1249ZM81.4583 76.1458C80.5198 76.1458 80.2719 75.6853 78.4302 73.8614C78.0968 73.5279 77.9094 73.0757 77.9094 72.6041C77.9094 72.1325 78.0968 71.6803 78.4302 71.3468C78.7637 71.0133 79.2159 70.826 79.6875 70.826C80.1591 70.826 80.6113 71.0133 80.9448 71.3468L82.7156 73.1176C82.9654 73.3653 83.1357 73.6818 83.2049 74.0266C83.2741 74.3715 83.239 74.7292 83.1041 75.054C82.9692 75.3788 82.7407 75.6562 82.4475 75.8506C82.1544 76.0451 81.8101 76.1478 81.4583 76.1458Z" fill="#DAD7E5"/>
<path d="M43.7708 68.5437C42.2077 68.4247 40.7319 67.7507 39.6157 66.6344C38.3811 65.3998 37.6875 63.7253 37.6875 61.9793C37.6875 60.2333 38.3811 58.5588 39.6157 57.3242C40.7319 56.208 42.2077 55.534 43.7708 55.415V68.5437Z" stroke="url(#paint0_linear_33_2415)"/>
<path d="M44.2709 54.896V65.2908C42.5396 64.8414 41.0424 63.7536 40.0799 62.2459C39.1175 60.7383 38.7611 58.9223 39.0823 57.1627C39.7448 56.4483 40.5475 55.8784 41.4403 55.4884C42.333 55.0983 43.2966 54.8967 44.2709 54.896Z" fill="url(#paint1_linear_33_2415)"/>
<path d="M53.125 83.2292H46.0417C44.2709 68.9562 44.5896 71.5063 44.2709 69.0625H51.3542L53.125 83.2292Z" fill="#C6C3D8"/>
<path d="M51.1417 83.2293H46.0417L44.5011 70.8335C45.9052 70.8353 47.2605 71.3487 48.3133 72.2777C49.3661 73.2066 50.0443 74.4874 50.2209 75.8804L51.1417 83.2293Z" fill="#DAD7E5"/>
<path d="M32.375 30.9873L48.6115 40.7292L32.375 50.4712V30.9873Z" stroke="url(#paint2_linear_33_2415)"/>
<defs>
<linearGradient id="paint0_linear_33_2415" x1="38.4612" y1="54.896" x2="46.7418" y2="57.6015" gradientUnits="userSpaceOnUse">
<stop offset="0.19" stop-color="#41558F" stop-opacity="0.75"/>
<stop offset="0.805" stop-color="#5C5D95" stop-opacity="0.65"/>
<stop offset="1" stop-color="#4C428C" stop-opacity="0.5"/>
</linearGradient>
<linearGradient id="paint1_linear_33_2415" x1="39.9209" y1="54.896" x2="46.0964" y2="56.955" gradientUnits="userSpaceOnUse">
<stop offset="0.19" stop-color="#41558F" stop-opacity="0.75"/>
<stop offset="0.805" stop-color="#5C5D95" stop-opacity="0.65"/>
<stop offset="1" stop-color="#4C428C" stop-opacity="0.5"/>
</linearGradient>
<linearGradient id="paint2_linear_33_2415" x1="35.0592" y1="30.1042" x2="52.7306" y2="39.727" gradientUnits="userSpaceOnUse">
<stop offset="0.19" stop-color="#41558F" stop-opacity="0.75"/>
<stop offset="0.805" stop-color="#5C5D95" stop-opacity="0.65"/>
<stop offset="1" stop-color="#4C428C" stop-opacity="0.5"/>
</linearGradient>
</defs>
</svg>
